# Blender v2.81 (sub 16) OBJ File: 'scene_21.3.3.blend'
# www.blender.org
mtllib cornellbox.mtl
o outcolorbox
v -0.064040 0.218880 -0.052580
v 0.065960 0.218880 -0.052580
v 0.065960 0.218880 0.052420
v -0.064040 0.218880 0.052420
v -0.277040 0.219680 -0.279580
v 0.278960 0.219680 -0.279580
v 0.278960 0.219680 0.279620
v -0.277040 0.219680 0.279620
v 0.272560 -0.329120 0.279620
v -0.277040 -0.329120 0.279620
v 0.275760 -0.329120 -0.279580
v -0.277040 -0.329120 -0.279580
v 0.278960 0.219680 -0.279580
v 0.275760 -0.329120 -0.279580
v 0.272560 -0.329120 0.279620
v 0.278960 0.219680 0.279620
v -0.277040 0.219680 0.279620
v -0.277040 -0.329120 0.279620
v -0.277040 -0.329120 -0.279580
v -0.277040 0.219680 -0.279580
vn 0.0000 -1.0000 -0.0000
vn 0.0000 0.0000 -1.0000
vn 0.0000 1.0000 0.0000
vn -1.0000 0.0087 -0.0029
vn -1.0000 0.0058 -0.0057
vn -0.9999 0.0117 0.0000
vn 1.0000 -0.0000 0.0000
# usemtl _cornell_boxgreen
# s 1
# f 1//1 2//1 3//1 4//1
usemtl _cornell_boxwhite
f 5//1 6//1 7//1 8//1
f 8//2 7//2 9//2 10//2
f 9//3 11//3 12//3 10//3
usemtl _cornell_boxred
f 13//4 14//5 15//4 16//6
usemtl _cornell_boxgreen
f 17//7 18//7 19//7 20//7




# s 1
# f 1//1 2//1 3//1 4//1
# usemtl _cornell_boxgreen
# f 5//1 6//1 7//1 8//1
# usemtl _cornell_boxblack
# f 8//2 7//2 9//2 10//2
# f 9//3 11//3 12//3 10//3
# usemtl _cornell_boxblack
# f 13//4 14//5 15//4 16//6
# usemtl _cornell_boxblack
# f 17//7 18//7 19//7 20//7
